<?xml version="1.0" encoding="UTF-8"?>
<svg xmlns="http://www.w3.org/2000/svg" xmlns:xlink="http://www.w3.org/1999/xlink" width="2400" height="1680" viewBox="0 0 2400 1680">
<rect x="-240" y="-168" width="2880" height="2016" fill="rgb(0.389099%, 3.921509%, 15.281677%)" fill-opacity="1"/>
<path fill-rule="evenodd" fill="rgb(99.609375%, 99.609375%, 99.609375%)" fill-opacity="1" d="M 1406.328125 874.710938 C 1406.328125 991.941406 1359.929688 1067.652344 1267.121094 1101.84375 L 1452.390625 1363.515625 L 1251.421875 1363.515625 C 1182.75 1264.714844 1115.078125 1166.945312 1046.089844 1068.769531 L 1069.421875 1130.105469 L 976.140625 1130.105469 L 976.140625 1293.078125 L 812.859375 1293.078125 L 812.859375 631.878906 L 984.492188 631.878906 L 992.996094 657.910156 C 994.734375 664.421875 1000.421875 669.429688 1007.511719 669.96875 C 1035.339844 672.050781 1065.351562 676.308594 1096.800781 682.785156 C 1127.410156 689.089844 1159.050781 697.410156 1190.988281 707.773438 C 1222.910156 718.179688 1253.390625 730.0625 1281.851562 742.976562 C 1311.089844 756.238281 1337.871094 770.449219 1361.589844 785.136719 L 1361.601562 785.121094 C 1367.050781 788.476562 1374.210938 788.429688 1379.71875 784.441406 L 1392.101562 775.480469 C 1401.589844 803.984375 1406.328125 837.0625 1406.328125 874.710938 Z M 1095.46875 988.800781 C 1151.289062 988.800781 1189.320312 979.730469 1209.558594 961.585938 C 1229.789062 943.441406 1239.910156 914.660156 1239.910156 875.234375 C 1239.910156 835.808594 1229.441406 808.769531 1208.511719 794.113281 C 1187.570312 779.460938 1150.941406 772.132812 1098.609375 772.132812 C 1026.101562 772.132812 953.925781 772.269531 881.453125 772.269531 L 976.140625 789.078125 L 976.140625 988.800781 L 1095.46875 988.800781 "/>
<path fill-rule="evenodd" fill="rgb(100%, 92.96875%, 0%)" fill-opacity="1" d="M 947.8125 467.050781 C 992.582031 503.878906 1037.089844 540.949219 1082.648438 576.789062 L 1058.511719 548.96875 L 1123.628906 424.320312 C 1142.070312 487.421875 1159.429688 548.660156 1179.128906 611.191406 L 1172.570312 557.171875 L 1288.160156 409.011719 L 1294.480469 596.820312 L 1257.398438 636.648438 C 1310.109375 597.671875 1360.179688 558.359375 1412.199219 518.179688 L 1391.53125 657.289062 L 1355.648438 665.589844 C 1413.578125 663.410156 1471.371094 659.609375 1529.25 656.160156 L 1370.148438 771.234375 C 1322.171875 741.527344 1262.570312 713.945312 1196.03125 692.257812 C 1129.46875 670.648438 1065.050781 657.898438 1008.769531 653.699219 Z M 1210.699219 647.171875 C 1218.328125 649.660156 1222.511719 657.859375 1220.03125 665.5 C 1217.539062 673.128906 1209.339844 677.308594 1201.699219 674.820312 C 1194.070312 672.339844 1189.890625 664.140625 1192.378906 656.5 C 1194.859375 648.871094 1203.058594 644.691406 1210.699219 647.171875 Z M 1056.03125 624.859375 C 1060.660156 626.359375 1063.191406 631.328125 1061.679688 635.960938 C 1060.179688 640.578125 1055.210938 643.109375 1050.578125 641.609375 C 1045.960938 640.101562 1043.429688 635.128906 1044.941406 630.511719 C 1046.441406 625.890625 1051.410156 623.359375 1056.03125 624.859375 Z M 1130.789062 629.371094 C 1137.140625 631.429688 1140.609375 638.25 1138.539062 644.589844 C 1136.480469 650.941406 1129.660156 654.410156 1123.320312 652.339844 C 1116.96875 650.28125 1113.5 643.460938 1115.570312 637.121094 C 1117.628906 630.769531 1124.449219 627.300781 1130.789062 629.371094 Z M 1348.898438 720.113281 C 1344.269531 718.609375 1339.300781 721.140625 1337.800781 725.765625 C 1336.289062 730.390625 1338.820312 735.355469 1343.449219 736.863281 C 1348.070312 738.367188 1353.039062 735.835938 1354.550781 731.210938 C 1356.050781 726.585938 1353.519531 721.621094 1348.898438 720.113281 Z M 1285.789062 679.78125 C 1279.449219 677.71875 1272.628906 681.1875 1270.570312 687.53125 C 1268.5 693.878906 1271.96875 700.695312 1278.320312 702.757812 C 1284.660156 704.820312 1291.480469 701.351562 1293.539062 695.003906 C 1295.609375 688.660156 1292.140625 681.84375 1285.789062 679.78125 Z M 1458.710938 449.328125 C 1443.230469 444.300781 1426.589844 452.769531 1421.550781 468.25 C 1416.511719 483.738281 1424.988281 500.378906 1440.46875 505.410156 C 1455.960938 510.449219 1472.589844 501.980469 1477.628906 486.488281 C 1482.671875 471.011719 1474.199219 454.371094 1458.710938 449.328125 Z M 1575.820312 632.121094 C 1567.21875 629.320312 1557.980469 634.03125 1555.179688 642.628906 C 1552.378906 651.238281 1557.089844 660.480469 1565.691406 663.28125 C 1574.289062 666.078125 1583.539062 661.371094 1586.339844 652.769531 C 1589.128906 644.160156 1584.429688 634.921875 1575.820312 632.121094 Z M 1293.761719 391.789062 C 1273.808594 384.949219 1262.96875 363.351562 1269.519531 343.21875 C 1276.058594 323.089844 1297.539062 312 1317.699219 318.210938 C 1337.640625 325.039062 1348.488281 346.648438 1341.941406 366.769531 C 1335.390625 386.898438 1313.921875 397.988281 1293.761719 391.789062 Z M 1126.519531 341.289062 C 1142.011719 346.320312 1150.480469 362.960938 1145.441406 378.449219 C 1140.398438 393.929688 1123.769531 402.410156 1108.28125 397.371094 C 1092.789062 392.328125 1084.320312 375.691406 1089.359375 360.210938 C 1094.398438 344.71875 1111.039062 336.25 1126.519531 341.289062 Z M 924.285156 420.210938 C 932.890625 423.011719 937.597656 432.25 934.796875 440.851562 C 932 449.460938 922.757812 454.160156 914.152344 451.359375 C 905.550781 448.558594 900.84375 439.320312 903.644531 430.71875 C 906.441406 422.121094 915.683594 417.410156 924.285156 420.210938 "/>
</svg>
